<svg xmlns="http://www.w3.org/2000/svg" version="1.1" xmlns:xlink="http://www.w3.org/1999/xlink" width="1000" height="1000"><style>
    #light-icon {
      display: inline;
    }
    #dark-icon {
      display: none;
    }

    @media (prefers-color-scheme: dark) {
      #light-icon {
        display: none;
      }
      #dark-icon {
        display: inline;
      }
    }
  </style><g id="light-icon"><svg xmlns="http://www.w3.org/2000/svg" version="1.1" xmlns:xlink="http://www.w3.org/1999/xlink" width="1000" height="1000"><g><g transform="matrix(1.953125,0,0,1.953125,0,0)"><svg xmlns="http://www.w3.org/2000/svg" version="1.1" xmlns:xlink="http://www.w3.org/1999/xlink" width="512" height="512"><svg xmlns="http://www.w3.org/2000/svg" version="1.1" viewBox="0 0 512 512">
  <defs>
    <style>
      .cls-1 {
        fill: #300148;
      }
    </style>
  </defs>
  <!-- Generator: Adobe Illustrator 28.7.1, SVG Export Plug-In . SVG Version: 1.2.0 Build 142)  -->
  <g>
    <g id="_Слой_1" data-name="Слой_1">
      <path class="cls-1" d="M473.5,116.8c-2.5-2.6-8.9-.3-12.3,1.5-8.8,4.7-14.2,14.9-18.4,15.4-.4,0-1.7.2-2-.5-.4-.7.4-1.9.7-2.3,1.5-2.2,7.4-12.3,15.6-26.4,2.5-6.6,1.8-12.8-1-14.6-3.2-2-10.8.9-15.6,9.5-6.2,11.8-10.6,18.5-13.3,22.2-1.2,1.7-3.1,4.2-3.9,3.9-.8-.4.1-4.1.4-5.3,1.6-6.4,4.4-19.4,8.7-40.3.8-4.9-.8-9.3-3.5-10.6-3.6-1.6-9.6,4.5-12.6,9-2.2,3.2-3.3,7.5-5.6,15.9-1.9,6.8-3.4,13.1-3.4,13.1-1.8,7.3-2.3,10.5-3.3,10.5-.6,0-1.5-1.3-2.5-7.1-1.6-10.7-3.2-21.3-4.8-32,.4-4.4-2-8.1-5.3-8.9-2-.5-4.3,0-5.9,1.4-2.3,1.9-2.6,5.1-2.7,6.7-.6,10.7,1.7,52.1,1.8,55.4,0,1.2.1,3.6-1.5,5.2-1.1,1-2.8,1.5-4.2,1.2-2-.4-3.2-2.3-3.7-3.1-3.9-6.1-8.7-13.7-14.3-15-2.6-.6-5.6.1-7.3,1.9-2.2,2.3-1.8,6-1.1,9.3,3.5,16.5,17.4,23.9,17.3,35.5-.2,11.8-14.9,20.5-21.3,24.4-2.8,1.6-11.5,6.5-28.3,8.4-10.6,1.1-29.5,1.6-52.8-6.8,6.3-2.2,15.7-6.3,25.3-14,10-8,16.1-16.6,19.6-22.4,1.6.3,10.9,2.2,19-3.8.9-.7,5.4-4.1,7.7-10.3,4.5-12.3-3.9-23.7-4.7-24.8,1.8-5.9,11.1-38.5-7.2-71.1-19.4-34.3-54.6-42.4-62.3-44-24.2-4.8-54.9-1.3-77.1,14.5-14,9.9-23.8,20.9-41.9,21.4-12.8.3-22.7-5.2-24.7-2.1-1.3,2.1,1.2,7.8,17.8,23-3.5,5.4-8.1,14-10.7,25.5-3,13.3-1.9,24.4-.8,31.1-7.2,5.7-9.9,15.4-6.8,23.8,3.4,9,12.8,14.7,22.6,13.4,5.7,8.1,15.1,19.3,29.3,29.6,13.2,9.6,25.9,15,35,18-8.2,5.7-17.5,13.1-26.9,22.5-7.4,7.4-13.6,14.7-18.6,21.3-.9,1.1-3.3,4.2-7.5,5.6-3.1,1-6,.7-7.8.4-29.7-10.9-36.5-16.5-36-19.6.2-.9,1.1-2.8.5-5.2-.6-2.3-2.3-3.9-3.7-4.8,11.7-1.5,21.4-8.9,25-19.1,5.1-14.4-2.9-31.8-17.7-37.1-17.1-6.1-35.3,6.4-38.6,21.3-2.3,10.4,3.1,19.4,4.8,21.9-1,2.3-1.9,4.7-2.9,7-1.8-.8-4.5-1.7-7.2-.8-4.4,1.5-6.1,7.1-6.9,10.1-2.6,8.6-6.3,20-11,34.2-.1.3-1.6,3.7.3,6.9,1.2,2,3.2,2.8,3.8,3-2.2,5.6-4.4,11.3-6.7,16.9-.2.6-.4,1.4-.2,2.4.5,2.4,2.9,3.6,6.3,5.2,3.6,1.7,6.1,2.9,8.5,1.8,1.1-.5,1.8-1.4,2.2-2,3.2-5.7,6.4-11.4,9.5-17,.8.1,7.2,1.1,9.4-2.2.2-.3.4-.6.5-1,19.2,11.5,35.2,19.2,46.6,24.3,4.9,2.2,8.6,3.6,13.7,4.1,22,1.8,37.5-18.7,39.2-20.9.8,12.8-2.7,21-5.2,25.4-1.6,2.9-3.9,5.8-15.2,16.4-14,13-14.2,11.9-18.1,16.1-8.7,9.6-12.2,23.1-18.9,49.9-2.3,9.4-4,17.2-5,22.2-10.8,1-19.8,2.5-26.5,3.8-8.3,1.7-12.3,2.9-15.2,6.4-3.7,4.5-3.8,10.4-3.5,13.4,0,11.8,0,23.6-.1,35.5.1,3,.9,6.6,3.5,9.1,2.4,2.3,5.4,2.7,6.4,2.9,11.7,1.7,89.2,15.6,109.4,19.6,19.6,4,30.2,7.8,50,7.2,13.5-.4,23.4-2.6,27.5-3.5,22.4-4.9,58.6-11.3,119.3-20.2,3.9-.7,7.8-1.3,11.8-2,.8-.1,3.8-.6,6.2-3.3,2.8-3.2,2.3-7.1,2.3-7.7-.1-14.8-.2-29.5-.3-44.3,0-.4.4-4.7-2.8-7.6-2-1.8-4.4-2-5.2-2-9.9-2.2-19.8-4.5-29.8-6.7-.6-1.8-1.6-4.5-3.2-7.4-3.6-6.6-7.9-10.7-9.8-12.5-12.7-11.9-22.1-18.9-27.8-24.8-5.8-6-12.6-15.8-16.3-32.4-5.7-28.8-11.4-57.6-17.2-86.4,12.8,2.1,40.6,4.8,69.5-9,22.3-10.7,36.1-26.8,42.8-34.7,8.1-9.6,10-14.5,18.7-27.8,8.2-12.5,20.9-30.2,39.4-50.3.3-.5,3.4-7.1.9-9.9ZM275.4,489.5c-10-5.6-19.9-11.3-29.9-16.9-9.6,5.4-19.1,10.8-28.7,16.1,3-10,5.9-19.9,8.9-29.9-8.8-6.5-17.7-12.9-26.5-19.4,11.6,0,23.2-.2,34.8-.2,4-9.7,7.9-19.4,11.9-29.1,4,9.6,8.1,19.3,12.1,28.9h35.5c-9.1,6.8-18.2,13.5-27.3,20.3,3.1,10,6.1,20.1,9.2,30.1ZM263.6,391.6c-4.3-1.3-10.7-2.8-18.5-2.7-8.8,0-14.9,2.1-22.6,4.4-7.9,2.4-19.5,5.7-34.3,9.3,0-5.7.8-15,6.2-24.5,4.3-7.4,9.6-11.9,12.7-14.5,5.7-4.7,9-5.7,18.4-11,4.7-2.7,11.3-6.6,19.1-12.1,2,2.8,5.2,7.2,8.6,13,4.1,7,6.6,12.3,7.2,13.6,3.3,6.9,12.1,17.4,36.4,33.3-11.1-3-22.2-5.9-33.3-8.9Z"></path>
    </g>
  </g>
</svg></svg></g></g></svg></g><g id="dark-icon"><svg xmlns="http://www.w3.org/2000/svg" version="1.1" xmlns:xlink="http://www.w3.org/1999/xlink" width="1000" height="1000"><g><g transform="matrix(1.953125,0,0,1.953125,0,0)" style="filter: contrast(1) brightness(1)"><svg xmlns="http://www.w3.org/2000/svg" version="1.1" xmlns:xlink="http://www.w3.org/1999/xlink" width="512" height="512"><svg xmlns="http://www.w3.org/2000/svg" version="1.1" viewBox="0 0 512 512">
  <defs>
    <style>
      .cls-1 {
        fill: #ffd900;
      }
    </style>
  </defs>
  <!-- Generator: Adobe Illustrator 28.7.1, SVG Export Plug-In . SVG Version: 1.2.0 Build 142)  -->
  <g>
    <g id="_Слой_1" data-name="Слой_1">
      <path class="cls-1" d="M473.5,116.8c-2.5-2.6-8.9-.3-12.3,1.5-8.8,4.7-14.2,14.9-18.4,15.4-.4,0-1.7.2-2-.5-.4-.7.4-1.9.7-2.3,1.5-2.2,7.4-12.3,15.6-26.4,2.5-6.6,1.8-12.8-1-14.6-3.2-2-10.8.9-15.6,9.5-6.2,11.8-10.6,18.5-13.3,22.2-1.2,1.7-3.1,4.2-3.9,3.9-.8-.4.1-4.1.4-5.3,1.6-6.4,4.4-19.4,8.7-40.3.8-4.9-.8-9.3-3.5-10.6-3.6-1.6-9.6,4.5-12.6,9-2.2,3.2-3.3,7.5-5.6,15.9-1.9,6.8-3.4,13.1-3.4,13.1-1.8,7.3-2.3,10.5-3.3,10.5-.6,0-1.5-1.3-2.5-7.1-1.6-10.7-3.2-21.3-4.8-32,.4-4.4-2-8.1-5.3-8.9-2-.5-4.3,0-5.9,1.4-2.3,1.9-2.6,5.1-2.7,6.7-.6,10.7,1.7,52.1,1.8,55.4,0,1.2.1,3.6-1.5,5.2-1.1,1-2.8,1.5-4.2,1.2-2-.4-3.2-2.3-3.7-3.1-3.9-6.1-8.7-13.7-14.3-15-2.6-.6-5.6.1-7.3,1.9-2.2,2.3-1.8,6-1.1,9.3,3.5,16.5,17.4,23.9,17.3,35.5-.2,11.8-14.9,20.5-21.3,24.4-2.8,1.6-11.5,6.5-28.3,8.4-10.6,1.1-29.5,1.6-52.8-6.8,6.3-2.2,15.7-6.3,25.3-14,10-8,16.1-16.6,19.6-22.4,1.6.3,10.9,2.2,19-3.8.9-.7,5.4-4.1,7.7-10.3,4.5-12.3-3.9-23.7-4.7-24.8,1.8-5.9,11.1-38.5-7.2-71.1-19.4-34.3-54.6-42.4-62.3-44-24.2-4.8-54.9-1.3-77.1,14.5-14,9.9-23.8,20.9-41.9,21.4-12.8.3-22.7-5.2-24.7-2.1-1.3,2.1,1.2,7.8,17.8,23-3.5,5.4-8.1,14-10.7,25.5-3,13.3-1.9,24.4-.8,31.1-7.2,5.7-9.9,15.4-6.8,23.8,3.4,9,12.8,14.7,22.6,13.4,5.7,8.1,15.1,19.3,29.3,29.6,13.2,9.6,25.9,15,35,18-8.2,5.7-17.5,13.1-26.9,22.5-7.4,7.4-13.6,14.7-18.6,21.3-.9,1.1-3.3,4.2-7.5,5.6-3.1,1-6,.7-7.8.4-29.7-10.9-36.5-16.5-36-19.6.2-.9,1.1-2.8.5-5.2-.6-2.3-2.3-3.9-3.7-4.8,11.7-1.5,21.4-8.9,25-19.1,5.1-14.4-2.9-31.8-17.7-37.1-17.1-6.1-35.3,6.4-38.6,21.3-2.3,10.4,3.1,19.4,4.8,21.9-1,2.3-1.9,4.7-2.9,7-1.8-.8-4.5-1.7-7.2-.8-4.4,1.5-6.1,7.1-6.9,10.1-2.6,8.6-6.3,20-11,34.2-.1.3-1.6,3.7.3,6.9,1.2,2,3.2,2.8,3.8,3-2.2,5.6-4.4,11.3-6.7,16.9-.2.6-.4,1.4-.2,2.4.5,2.4,2.9,3.6,6.3,5.2,3.6,1.7,6.1,2.9,8.5,1.8,1.1-.5,1.8-1.4,2.2-2,3.2-5.7,6.4-11.4,9.5-17,.8.1,7.2,1.1,9.4-2.2.2-.3.4-.6.5-1,19.2,11.5,35.2,19.2,46.6,24.3,4.9,2.2,8.6,3.6,13.7,4.1,22,1.8,37.5-18.7,39.2-20.9.8,12.8-2.7,21-5.2,25.4-1.6,2.9-3.9,5.8-15.2,16.4-14,13-14.2,11.9-18.1,16.1-8.7,9.6-12.2,23.1-18.9,49.9-2.3,9.4-4,17.2-5,22.2-10.8,1-19.8,2.5-26.5,3.8-8.3,1.7-12.3,2.9-15.2,6.4-3.7,4.5-3.8,10.4-3.5,13.4,0,11.8,0,23.6-.1,35.5.1,3,.9,6.6,3.5,9.1,2.4,2.3,5.4,2.7,6.4,2.9,11.7,1.7,89.2,15.6,109.4,19.6,19.6,4,30.2,7.8,50,7.2,13.5-.4,23.4-2.6,27.5-3.5,22.4-4.9,58.6-11.3,119.3-20.2,3.9-.7,7.8-1.3,11.8-2,.8-.1,3.8-.6,6.2-3.3,2.8-3.2,2.3-7.1,2.3-7.7-.1-14.8-.2-29.5-.3-44.3,0-.4.4-4.7-2.8-7.6-2-1.8-4.4-2-5.2-2-9.9-2.2-19.8-4.5-29.8-6.7-.6-1.8-1.6-4.5-3.2-7.4-3.6-6.6-7.9-10.7-9.8-12.5-12.7-11.9-22.1-18.9-27.8-24.8-5.8-6-12.6-15.8-16.3-32.4-5.7-28.8-11.4-57.6-17.2-86.4,12.8,2.1,40.6,4.8,69.5-9,22.3-10.7,36.1-26.8,42.8-34.7,8.1-9.6,10-14.5,18.7-27.8,8.2-12.5,20.9-30.2,39.4-50.3.3-.5,3.4-7.1.9-9.9ZM275.4,489.5c-10-5.6-19.9-11.3-29.9-16.9-9.6,5.4-19.1,10.8-28.7,16.1,3-10,5.9-19.9,8.9-29.9-8.8-6.5-17.7-12.9-26.5-19.4,11.6,0,23.2-.2,34.8-.2,4-9.7,7.9-19.4,11.9-29.1,4,9.6,8.1,19.3,12.1,28.9h35.5c-9.1,6.8-18.2,13.5-27.3,20.3,3.1,10,6.1,20.1,9.2,30.1ZM263.6,391.6c-4.3-1.3-10.7-2.8-18.5-2.7-8.8,0-14.9,2.1-22.6,4.4-7.9,2.4-19.5,5.7-34.3,9.3,0-5.7.8-15,6.2-24.5,4.3-7.4,9.6-11.9,12.7-14.5,5.7-4.7,9-5.7,18.4-11,4.7-2.7,11.3-6.6,19.1-12.1,2,2.8,5.2,7.2,8.6,13,4.1,7,6.6,12.3,7.2,13.6,3.3,6.9,12.1,17.4,36.4,33.3-11.1-3-22.2-5.9-33.3-8.9Z"></path>
    </g>
  </g>
</svg></svg></g></g></svg></g></svg>