<?xml version="1.0" encoding="UTF-8"?>
<svg xmlns="http://www.w3.org/2000/svg" version="1.1" viewBox="0 0 2560.2 1440">
  <defs>
    <style>
      .cls-1 {
        fill: #47165f;
      }

      .cls-2 {
        fill: #601784;
      }

      .cls-3 {
        fill: #3f1653;
      }

      .cls-4 {
        fill: #7817a8;
      }

      .cls-5 {
        fill: #4f166b;
      }

      .cls-6 {
        fill: #70179c;
      }

      .cls-7 {
        fill: #571677;
      }

      .cls-8 {
        fill: #681790;
      }
    </style>
  </defs>
  <!-- Generator: Adobe Illustrator 28.7.1, SVG Export Plug-In . SVG Version: 1.2.0 Build 142)  -->
  <g>
    <g id="_Слой_1">
      <g id="_Слой_1-2">
        <g id="_Слой_1-2-2" data-name="_Слой_1-2">
          <g id="_Слой_1-2-2">
            <g id="_Слой_1-2-2-2" data-name="_Слой_1-2-2">
              <g id="_Слой_2">
                <g id="_Слой_3">
                  <rect class="cls-4" x="5.8" y="324.1" width="2552.2" height="948.8"/>
                  <path class="cls-3" d="M5.8,324.1h2552.7v948.8H5.8V324.1Z"/>
                </g>
                <path class="cls-6" d="M2560,395.3c-853.3,12.4-1706.7,24.7-2560,37.1v499.7c48,4.7,157.8,16,270.8,33.9,31.8,5,83,13.3,150.7,27.4,20.2,4.2,39,8.4,58.8,13,155,35.9,202.8,62.3,322.2,60.5,187.4-2.8,333.5-71.9,501.7-151.4,211.3-99.9,230.5-190.8,308.9-179,89.2,13.5,100.5,119.4,175.7,191,91.4,87,291.9,142.7,771.2,3.9V395.3Z"/>
                <path class="cls-8" d="M2560,727.9c-14.2-22.6-39.8-55.3-82.7-74.2-63.5-28-103.1,6-295.2,29.7-95,11.7-178.9,21.3-274.7-2.1-58-14.2-54.4-24.3-128.7-48.6-29.1-9.5-169.9-55.4-285.9-43.2-134.8,14.2-145.5,97.5-265.3,148.9-309.8,132.8-816.3-176.1-969.3-48.9-21.4,17.8-57.8,66.8-130.7,88.7-51.4,15.4-98.7,11.3-127.5,6.6v-65c60.1-51.4,127.2-101,202-147,540.2-331.5,1167.2-275.2,1461.7-228.1,127.4,2.1,260.6,7.3,399.1,16.3,175.1,11.4,341.2,27.9,497.3,47.6,0,106.4-.1,212.8-.2,319.2h0Z"/>
                <path class="cls-2" d="M2560,684c-32.6-56.9-70.4-80.3-95.9-91.3-163.5-70.5-360.3,103.9-522.7,62.2-75-19.3-86.5-51.6-218.7-86.6-19-5-103.1-27.3-176-30.6-231.8-10.3-285.6,174.7-528,195.8-132.4,11.5-278.6-29.6-405.3-65.2-66.5-18.7-145.7-45.6-252-37.7-53.2,3.9-111.5,8.2-164,39.8-53.3,32-65.3,70.8-114.7,77.5C50.7,752,20.8,740.3,0,729.3v-94.6c53.7-10.3,130.4-24.6,239-43.7.3,0,3.5-.6,3.9-.7,30.5-5.5,170.4-30.5,323.7-55.6,764.5-124.8,1155.4-143.2,1306-146.8,18.3-.4,34.4-.6,36.9-.7,284.9-4.4,504,10.9,650.7,25.7l-.2,271.1h0Z"/>
                <g id="_Слой_4">
                  <path class="cls-7" d="M2560,351.4c-643.2,30.4-917,41-975.9,40.3-2.5,0-14.1-.2-29.6,0-36.1.6-95.6,3.5-166.4,16-83,14.7-140.2,35.3-158,41.2-100.6,33.7-586.3-9.1-795.2,6.9C331.7,463.8,180,495.2,0,611.1v105.9c17.3,8,42.7,16.5,71.4,12.8,47.7-6.2,70-42.8,102.7-67.3,61.8-46.3,148.4-50.2,210.7-53,157-7.1,203.2,62.2,290.7,33.7,82-26.8,77.8-99.5,136-101.9,71.9-3.1,95.2,107.1,210.7,126.4,44.1,7.3,79.7-2.1,130.7-16.3,157.4-43.7,180.4-106.6,270.7-139.7,213.4-78.3,426.8,147.5,660,65.2,63.7-22.4,83.8-52,128.6-70.2,0,0,26.6-8.7,52.7-13.4,117.1-21,276.9,72.7,295.1,83.5v-225.4h0Z"/>
                </g>
                <path class="cls-5" d="M2560,533.7c-117.1-89.7-210.6-105.5-275.2-102.7-166.3,7.4-227.2,139.8-393,124.7-61.3-5.6-117.7-30.4-200-66.5-103.5-45.5-131.5-77.2-191-73.4-32.5,2.1-70.5,25.4-145,71.9-108.2,67.5-117.8,86.8-174,104-20.8,6.3-83.1,25.5-153,13.8-128.7-21.6-153-125.7-230-120.1-62.9,4.6-57.1,74.7-148,104.8-68,22.5-142.8,6.8-245-14.5-97-20.3-139.8-44.3-205-29.1-32.6,7.6-53.5,21-78,36.7-32.9,21.1-53.8,42.3-66.1,55C40.3,655.3,19.1,680.3,0,713.9v-125.7c60.7-35.6,141.4-78.1,241.3-117.9,0,0,23.4-9.5,46.9-18,460-166,1463.8-120.5,1463.8-120.5,99.7,14.9,221,25.5,358.8,21.9,179.9-4.8,332.4-32.5,449.2-62v242h0Z"/>
                <path class="cls-1" d="M2560,444.9c-32.6-31.7-85.2-72.6-157.9-87.3-202.9-40.8-321.9,170.9-530.7,145.8-154.9-18.6-153.3-145.8-298.7-157-195.8-15.2-275.9,209.4-488,200.9-161.3-6.4-246.4-141.5-343.4-106.8-67.7,24.2-52.1,99.3-139.3,127.2-47,15-92.7,6.3-164-7.1-33.6-6.4-60.6-13.6-83-20.9-97.3-31.6-114.4-39.8-138.3-42.3C171.4,492.6,102.1,523,0,685.4v-408.7c275.6,21.3,578.9,32,905.7,24.3,204.7-4.8,398.9-16.4,581.9-32.7.3,0,325.7-23.6,638.6-1.9,123.7,8.6,220.1,23.9,264.6,30.8,67.2,10.5,124.6,21.4,169.2,30.6v117h0Z"/>
                <path class="cls-3" d="M2560,404.2c-54.3-43.1-103.2-59.5-135.5-66.9-189-42.8-381.4,93.3-545.7,68.7-148.2-22.3-128.5-101.3-268-119.3-223.7-28.9-320.4,168.2-546,146.8-180.8-17.1-249.7-156.2-352-127-104.4,29.9-67.5,184.8-166,211.1-126.4,33.7-255.7-183.3-386-153C108.2,377,40.1,434.3,0,662.2,0,441.5,0,220.7,0,0h2560.2c0,134.7-.1,269.4-.2,404.2Z"/>
              </g>
            </g>
          </g>
          <path class="cls-8" d="M286,797c24.1,4.5,50.9,12.4,50.9,12.4,40.3,15.3,56.5,37.7,119.5,51.1,187.7,40.1,289.5-106.2,468-68.8,30.1,6.3,101.7,26.1,207.4,30.2,0,0,28.7,1.1,53.6.6,156.3-3,261.8-112.4,379.5-129,198.6-27.9,292,228.1,498,209.5,173.2-15.6,245.4-220.7,402-194.3,43.1,7.3,75.2,28.7,95.1,45v280.1c-17.1-7.4-31.2-11.4-38.7-13.3-114.6-29.5-211.9,17.2-536.4,171.5-8.5,4-17.4,8.1-27.9,11.9-344.8,126.2-867.2,36.9-1059.7,3.6C692.3,1172.2,388.7,1135.2,0,1144.6v-282.3c22.2-10.5,182.1-84.8,286-65.3h0Z"/>
          <path class="cls-2" d="M188.2,826.9c168.3-2.4,200.4,96.5,332.8,93.1,139.5-3.5,160.8-104.6,327.5-112.3,17.8-.8,31.6-.3,43.9,1.2,44,5.4,75.7,16,87,20,0,0,13.2,4.7,161.4,35.9,157.5,33.1,299.4-87,486-64.2,180.5,22,172.9,149.7,378,171.3,29.8,3.1,224.1,20.9,306-59.7,36.5-35.9,77.6-117.8,136.2-139,17.6-6.4,36.4-9.8,36.4-9.8,12-2.2,26.9-3.8,44.1-3.5,12.2.2,23.1,1.4,32.4,3,0,116.5,0,233.1.1,349.6-1137.1,5.4-1865.1,9-1869.7,9.1,0,0-1.1,0-2.5,0-2.2,0-5.7.1-9.8.2-7,0-23.9.4-24.5.5-10.5.2-195.1-7.1-653.5-26.2v-219.7c43.4-22.5,108.5-48.5,188.2-49.6h0Z"/>
          <g id="_Слой_4-2">
            <path class="cls-7" d="M2560,1125.4c0-114.9,0-229.9,0-344.8-14,2.2-35.2,6.4-59.2,15.5-102.6,38.8-123.5,119.3-182,166.7-96.8,78.5-287.5,78.1-404,48.9-172.4-43.1-164.4-144.9-318-169.8-133-21.6-154.6,52.2-366.4,66-204.3,13.3-243-58.4-428-22.9-133.1,25.5-150.8,66.1-254,61.2-150.6-7.2-217.6-98.8-318-68.8-55.2,16.5-64.8,46.1-136,52C55.4,932.6,22.3,925.5,0,918.7v227c853.3-6.8,1706.7-13.5,2560-20.3Z"/>
          </g>
          <path class="cls-5" d="M188.3,995.2c9.3-1,26.3-2.5,45.4-8,38.7-11.2,58.5-30.1,108.6-40.9,109.9-23.8,154.9,36.6,378,76.5,116.5,20.8,210.2,13.6,272,9.2,310.8-22.3,376.8-156.2,540.4-122.6,136.6,28,123.4,128,322,180.5,20.5,5.4,107.9,27.4,224,21.4,79.7-4.1,187.3-11.4,294-78,122.1-76.2,170.4-185.9,187.3-232.3v279.3c-58.4,38.2-139.1,84.8-241.3,126.6,0,0-93.1,38.2-192,63.5-430.3,109.8-758.8-8.6-1674.3-105.5-180.3-19.1-363.6-34.1-363.6-34.1-40.4-3.4-72.5-5.9-88.8-7.2v-170.3c36.8,18.3,112.1,50.5,188.3,41.9h0Z"/>
          <path id="_x32_" class="cls-1" d="M161.7,1028.7c34.1-3.6,60-16,142.6-35.2,21.7-5,40.4-7.6,57.7-8.5,77.6-4.2,140.8,4.1,173.8,10.8,177,35.6,213.6,70.5,322.5,82,87.4,9.2,153.7-3.7,236-19.9,228.2-44.7,248.9-111,364-110.1,165.8,1.1,174.2,143.3,396.4,207.8,161.7,46.9,388.2,56,544-64.2,118.1-91.1,150.9-218.2,161.3-273.8,0,136.7,0,273.5,0,410.2-112,24.2-252.6,48.9-416.1,64.6-229.2,22.1-418.5,18.3-543.2,11.5-201.3-10.9-378.5-37.3-526.7-67.8,0,0-324.9,23.6-637.2,1.9-135.3-9.4-264-30.8-264-30.8C104.4,1196.6,45.8,1185.5,0,1176v-218.6c72.3,65.1,125.6,75.1,161.7,71.3h0Z"/>
          <path class="cls-3" d="M0,971.1c17.7,13.8,44.6,32.6,80.5,49.9,0,0,25.9,12.6,52.8,21.5,145.6,48.1,236.8-7.8,406,0,184.7,8.5,174,97.6,344,109,166.8,11.2,208-63.9,391.5-70.8,153.5-5.9,189.1,44.1,398,91.8,191.3,43.6,531.1,127.5,726-15.3,42.6-31.3,133.2-112.3,161.2-298.6,0,193.8,0,387.6,0,581.4H0v-468.9h0Z"/>
        </g>
      </g>
    </g>
  </g>
</svg>