<?xml version="1.0" encoding="UTF-8"?>
<svg xmlns="http://www.w3.org/2000/svg" version="1.1" viewBox="0 0 2560 1440">
  <defs>
    <style>
      .cls-1 {
        fill: #47165f;
      }

      .cls-2 {
        fill: #601784;
      }

      .cls-3 {
        fill: #3f1653;
      }

      .cls-4 {
        fill: #7817a8;
      }

      .cls-5 {
        fill: #4f166b;
      }

      .cls-6 {
        fill: #70179c;
      }

      .cls-7 {
        fill: #571677;
      }

      .cls-8 {
        fill: #681790;
      }
    </style>
  </defs>
  <!-- Generator: Adobe Illustrator 28.7.1, SVG Export Plug-In . SVG Version: 1.2.0 Build 142)  -->
  <g>
    <g id="_Слой_1" data-name="Слой_1">
      <g id="_Слой_1-2" data-name="_Слой_1">
        <g id="_Слой_1-2">
          <g id="_Слой_2">
            <g id="_Слой_3">
              <rect class="cls-4" x=".8" width="2558.7" height="1241"/>
              <path class="cls-2" d="M2559.5,1241H.3V0h2559.2v1241Z"/>
            </g>
            <path class="cls-6" d="M.3,949.2c418.6,83.1,1110.9,159.6,1894.6-50.8,255.1-68.4,477-155.9,665.1-245.6V0h-586.2c-359.7,30.6-524.4,145-607.7,250.2-122.2,154.5-74,295.7-242.9,417.4-9.2,6.6-182.4,127.6-394.8,95.1-85.5-13.1-148-46.5-193.9-71.1-168.4-90-185.7-181.3-294.9-205-51.1-11.1-128.8-8.9-239.4,58.2v404.4h0Z"/>
            <path class="cls-8" d="M.3,612.2c36.1-19,97.2-45.3,173.4-46.2,195.4-2.1,264.4,165.7,465.7,224.4,175.7,51.2,377.8-2.2,502.7-80.3,214.7-134.1,168-307.9,426.8-462.6,128.9-77,243.8-94.9,271.9-98.8,215.8-30.1,383.9,51.2,434.7,76.6,161,80.5,247.4,196.4,284.4,253.9v102.5c-40.6,49.6-106.3,121.7-200.4,193.9-398.5,305.8-906.9,305.4-1462.2,298.2-222.8-3-531.1-19.9-897.1-82.2v-379.5h0Z"/>
            <path class="cls-2" d="M.3,627.9c72.8,4,179.6,16.8,300.4,59.1,55.6,19.5,99.3,35.2,159.8,69.3,122.8,69.1,158.7,134.3,281.1,149.6,234.9,29.4,502.4-160.9,630.6-307.5,47.3-54,86.3-114.3,179.9-177.3,71.5-48.1,171.8-115.5,290.9-105.3,146,12.6,271.2,137.8,345.9,212.4,54.5,54.5,74,87.5,126.9,102.5,85.9,24.4,178.3-22,244.4-66.5v162.5c-53.6,13.5-135.8,33.9-236.5,57.5-19.6,4.6-166.3,39.2-327.8,73.6-764.7,163.3-1155.8,187.4-1306.4,192.1-18.3.6-34.5.8-36.9.9-285.5,5.9-505.1-14-652.1-33.2v-389.7h0Z"/>
            <g id="_Слой_4">
              <path class="cls-7" d="M.3,926.1c160,15.9,286.7,41.6,372.4,61.9,116.5,27.6,352.4,90.8,524.7,85.9,182.9-5.2,177.1-58.9,419.8-106.2,196.6-38.3,551.7-12.6,797.6-25.9,103.2-5.5,257.4-22.3,445.2-76.6v-244.7c-101.7,125.9-177.7,148.5-229.4,144-106.9-9-128.5-134.7-295.9-220.7-18.4-9.4-136.3-68.4-281.9-62.8-209.8,8-364.8,145.8-471.7,241-191.9,170.6-208.1,286.2-324.9,293.6-101.3,6.4-117.2-78.8-287.9-118.2-149.7-34.5-204.2,15.5-333.9-8.3-85.2-15.7-206-63.8-334.4-219.8v256.7h0Z"/>
            </g>
            <path class="cls-5" d="M.3,846.7c107.8,89,195.7,107,255.9,107.1,105.6.2,147.6-56.3,299.9-52.6,88,2.1,152.6,24.7,165.9,29.5,132.3,47.7,135.4,116.2,205.9,131.1,139.7,29.6,210.8-221.5,489.7-321.3,27.8-10,203.3-70.4,398.8-22.2,208.5,51.3,251.1,179.8,406.8,185.6,74.8,2.8,189.6-22.2,336.9-174.5v166.2c-50.6,39.6-131,97.6-237.9,154.2-12.9,6.8-28.4,14.8-46.9,23.5-460,217-1464.3,157.4-1464.3,157.4-205-12.7-482.1-36.1-810.6-82.2v-301.9h0Z"/>
            <path class="cls-1" d="M.3,993.5c27.5,27.1,83.4,75,170.4,104.3,86,29,157.9,25.2,171.9,24,136.3-11.5,160.2-82.2,257.9-100.6,178.3-33.6,256.1,171.6,441.7,152.4,135.2-14,125.2-124.9,278.9-161.6,204.2-48.8,295.9,129.3,500.7,76.6,125.9-32.3,138.4-111.6,279.9-123.7,111.8-9.6,168.9,17.5,224.9,15.7,59.3-1.8,139.8-42.5,233.4-211.5v338c-25,12-62.1,29.3-107.9,48.4-153.9,64.5-274.4,95.4-303.4,103-286,75.1-351.8,32.8-1073.5,55.4-442.1,13.9-586.9,26.3-903.6-37.9-72.6-14.7-131.9-29.8-171.4-40.6v-241.9h.1Z"/>
            <path class="cls-3" d="M0,1135c53.2,53.1,103.8,76.8,136.9,88.6,106.3,37.9,162.7,8.2,417.8,1.8,250.4-6.3,247,86,413.8,60.9,253-38,292.8-254.8,476.7-243.8,175.9,10.6,207.2,212.7,383.8,206.8,126.6-4.2,153-109.5,326.9-124.7,123.3-10.8,162,37.7,234.9,12,64.3-22.6,139.3-97.2,168.9-338.9l.4,642.5H.5c0-64.9-.5-240.4-.5-305.4h0Z"/>
          </g>
        </g>
      </g>
    </g>
  </g>
</svg>