<?xml version="1.0" encoding="UTF-8"?>
<svg xmlns="http://www.w3.org/2000/svg" version="1.1" viewBox="0 0 2560 900">
  <defs>
    <style>
      .cls-1 {
        fill: #47165f;
      }

      .cls-2 {
        fill: #601784;
      }

      .cls-3 {
        fill: #3f1653;
      }

      .cls-4 {
        fill: #7817a8;
      }

      .cls-5 {
        fill: #4f166b;
      }

      .cls-6 {
        fill: #70179c;
      }

      .cls-7 {
        fill: #571677;
      }

      .cls-8 {
        fill: #681790;
      }
    </style>
  </defs>
  <!-- Generator: Adobe Illustrator 28.7.1, SVG Export Plug-In . SVG Version: 1.2.0 Build 142)  -->
  <g>
    <g id="_Слой_1" data-name="Слой_1">
      <g id="_Слой_1-2" data-name="_Слой_1">
        <g id="_Слой_1-2">
          <g id="_Слой_1-2-2" data-name="_Слой_1-2">
            <g id="_Слой_2">
              <g id="_Слой_3">
                <rect class="cls-4" x="4.5" y="58.5" width="2551.6" height="787.4"/>
                <path class="cls-3" d="M4.5,58.5h2552.1v787.4H4.5V58.5Z"/>
              </g>
              <path class="cls-6" d="M2560.4,117.6C1707.1,127.9,853.7,138.3.4,148.7v414.1c109.7,8.3,200.9,19.1,269,28.4,101.4,13.8,151.3,22.4,209.5,33.5,155,29.9,202.8,51.7,322.1,50.2,187.4-2.3,333.4-59.6,501.6-125.6,162-63.5,189.2-144.9,308.8-148.5,97.7-2.9,164.6,41,228.8,71.7,125.5,59.8,338.3,115.1,720.1,89.6V117.6h.1Z"/>
              <path class="cls-8" d="M2560.4,368.5c-22.9,2.7-58.8,5.5-101.4,1.9-112.8-9.3-129.8-42.7-215.9-66.6-127.2-35.4-193.2,31.4-365.8,24.8-188.6-7.2-197-90.3-361.8-105.9-247.6-23.4-307.7,156.6-613.6,171.9-267.1,13.5-430.7-113.2-572.7-46.9-62.8,29.3-89.2,81.3-194.9,101.5-52.9,10.1-101.3,7.6-133.9,3.9v-65c40.6-31.4,106.2-77.2,200.3-123C618.2,61.5,1662,75.7,1662,75.7c228.5,3.1,536.1,15.3,898.4,53.3v239.4Z"/>
              <path class="cls-2" d="M2560.4,313.2c-149.7-36-265.9-36.9-344.5-31-127.4,9.5-241.3,37.9-384.8,17.8-150-21.1-141-70.1-260.8-88.9-240.7-37.7-341.1,150-666.6,152.3-128.2,1-149.1-27.9-439.7-42.5-168-8.4-239.1-2.7-288.8,27.3-55.4,33.4-74.8,79.1-130.9,80-18.5.3-33.8-4.7-43.7-8.8v-102.9c52.9-8.5,128.9-20.4,237.1-36.6.5,0,3.5-.5,3.9-.6,30.5-4.6,170.4-25.3,323.6-46.1,764.3-103.6,1155.1-118.9,1305.7-121.9,18.4-.4,34.5-.6,36.9-.6,285.9-3.8,505.7,9.1,652.8,21.5v181h-.2Z"/>
              <g id="_Слой_4">
                <path class="cls-7" d="M2560.4,81.1c-634.6,27.6-881.7,34-978,33.6-23.5-.1-99.3-.8-196,13.3-83,12.2-140.2,29.3-158,34.2-208,58-503.4-22.4-795,5.7C324.4,178.4,172.4,208.3.4,296.9v88c55-33.1,140.3-73.7,255-86.3,102.5-11.3,141.9,9.3,259,1.3,152.8-10.5,160.3-50.6,299-69.2,205.3-27.4,249.8,52.4,442,27.3,180.4-23.6,198.7-101.4,337-95.1,135.9,6.1,143.8,82.4,296,98.3,141.2,14.9,195.6-44.5,367-47.6,130.9-2.4,238.1,29.7,305,55.2V81.1Z"/>
              </g>
              <path class="cls-5" d="M2560.6,263.8c-82.5-46.1-156.9-64.5-204.9-73-231-40.7-367.4,57.2-571.6,2.5-106.3-28.5-88.9-60.2-172.9-68.5-159.6-15.8-223.6,99-449.7,105.3-78.7,2.2-168.8-9-208.9-14-134.4-16.7-120.8-30.4-181.9-31.1-153.5-1.8-209.1,85.2-371.8,71.7-31.8-2.7-31-6.1-58-8.3C207.5,237.8,86,314.2,2.2,383v-105.4c50.6-25.2,130.9-61.9,237.7-97.8,12.9-4.3,28.4-9.4,46.9-14.9C746.7,27.1,1750.3,64.9,1750.3,64.9c204.8,8.1,481.8,22.9,810.1,52.1,0,48.9.1,97.8.2,146.7Z"/>
              <path class="cls-1" d="M2560.3,215.5c-27.5-17.1-83.3-47.6-170.3-66.2-85.9-18.4-157.8-16-171.8-15.2-136.2,7.3-160.1,52.1-257.7,63.8-178.2,21.3-255.9-108.9-441.5-96.7-135.1,8.9-125.1,79.3-278.7,102.5-204,30.9-295.7-82-500.4-48.7-125.8,20.5-138.3,70.8-279.7,78.5-111.8,6.1-168-11.2-224.7-10-58.3,1.3-139.1,26.3-234.1,133.9V19.8c709.9,28.8,1202.9,26,1484.7-7.6h0c.3,0,325.6-19.6,638.5-1.6,80.9,4.6,164,12.7,264.5,25.6,72.5,9.3,131.8,18.9,171.3,25.8v153.5h0Z"/>
              <path class="cls-3" d="M2560.4,125.8c-53.6-33.1-103.6-48.5-137.8-56.3-108.4-25-163.5-5.2-417.5-1.1-250.2,4-246.8-54.6-413.5-38.7-252.8,24.1-292.6,161.7-476.4,154.7-175.8-6.7-207-135-383.5-131.2-126.5,2.7-152.9,69.5-326.6,79.1-123.5,6.9-161.9-25.3-234.7-7.6C105.7,140.3,33.6,190,.4,339.2V-5h2560V125.8Z"/>
            </g>
          </g>
        </g>
        <path class="cls-8" d="M.4,505c49.1-19.7,171.1-64,284.2-54,10.8,1,35,2,62.3,8.1,55.2,12.3,78.1,33.3,156.3,40.1,202,17.5,275.7-103.8,445.2-75.5,122.9,20.5,140.3,56.3,235.3,48.5,154.3-12.8,150.1-141,292.7-171.5,232.3-49.7,509.4,233.1,718.7,171.3,71.9-21.2,100.2-71.8,205.6-79.3,66.1-4.8,123.2,10.3,159.5,22.9v232.5c-42.5-12.4-113.6-31.3-204.8-45.3-534.5-82.2-891.7,134-1459.7,189.2-201.8,19.6-504.1,26-895.5-52.1v-234.7h.2Z"/>
        <path class="cls-2" d="M.4,516.9c41.4-18.1,106.2-40.5,186.5-41.2,155.6-1.6,196.1,80.2,332.7,77.3,139.5-2.9,160.8-86.8,327.4-93.2,78.1-3,78.6,15.3,222.4,30.5,62.7,6.6,196.5,20.7,339.1,3.2,205.7-25.3,217.1-90.1,350-83.8,133.5,6.4,128.9,72.3,298.2,89.5,55.4,5.7,222.7,22.7,318.1-33.6,29.7-17.5,55.5-34.9,106.7-42.5,31.6-4.7,59.7-2.9,78.9-.6v290.3c-1128.5,4.4-1858.2,7.3-1871.6,7.6-.2,0-5.3.1-12.3.2-6.4.1-14.7.3-24.5.4-284.7,3.7-503.7-8.9-650.3-21.1-.4-60.9-.9-121.9-1.3-182.8h0Z"/>
        <g id="_Слой_4-2">
          <path class="cls-7" d="M2560.4,723.5v-286.4c-16.3-1.1-41.6-1.7-71,2.5-88.2,12.5-115.3,53.9-177.5,77.4-62.1,23.5-128.8,15.1-262.3-1.9-142.5-18.1-193.3-48.8-345-50.7-20-.3-40.9-.5-68.8,1.3-180.4,11.6-215.3,83.5-334.1,97.7-193.7,23.2-324-118.3-462.7-73-48.9,15.9-32,29.4-95.7,53.3-151.8,56.9-357.3,13.3-385.9,7-55.3-12.2-111.8-22.3-166.5-35.5-44.8-10.9-71.9-18.5-104.7-13.3-45.9,7.2-72.9,34.7-85.8,50.7v187.8c853.3-5.6,1706.7-11.2,2560-16.8Z"/>
        </g>
        <path class="cls-5" d="M.4,584.2c11.1-4.1,27-9.4,46.9-14.6,36.9-9.6,101.9-22.3,197.4-17.8,117.5,5.6,140.9,30.5,223.4,38.7,189.9,18.8,252.6-95.1,449.7-88.9,134.7,4.3,132.3,58.4,282.2,74.9,205,22.5,247-74.6,481.7-85,229.6-10.2,374.2,74.5,623.3,67.3,50.9-1.5,119.9-8.3,179.5-39.3,42.2-22,64.5-48.4,76-65.3v231.2c-604.9,73.9-1318.3,115.1-2109.4,70.8-155.1-8.7-305.2-20.2-450.3-34,0-46-.2-92-.3-138h-.1Z"/>
        <path id="_x32_" class="cls-1" d="M.8,584.2c36.9,27.3,91.6,57.9,159.6,59,53.2.8,79.2-17,142.6-29.2,90.6-17.5,129.1,1.3,231.4,1.9,212.6,1.3,263-78.6,380.9-50.1,93.8,22.7,89.9,79.9,174.5,86.9,68.6,5.7,100.9-29.5,218.4-71.1,0,0,135.5-48,300.2-64.1,141.3-13.8,253.7,2,370,18.4,225,31.7,281.2,72.2,384.9,53.3,102.4-18.7,163.7-79.6,197.2-122.4v341.1c-325.4-12.1-650.3-15.3-974.9-9.5-171.1,3.1-342.2,8.6-513.1,16.8,0,0-324.8,19.6-637.1,1.6-80.7-4.6-163.7-12.7-263.9-25.6-72.4-9.3-131.5-18.9-170.9-25.8,0-60.4.2-120.8.4-181.3h-.2Z"/>
        <path class="cls-3" d="M.4,595c25.9,17.5,69.2,42.5,131.6,59.6,145.6,39.9,236.7-6.5,405.9,0,236.7,9,272.4,115.3,430,93.1,138.8-19.6,146.5-104.4,280.1-110.3,117.1-5.1,146.3,58.4,281.2,62.2,130.5,3.7,147.5-54.6,295.2-78.1,186.2-29.6,345.4,82.4,534.5,38.7,61.1-14.1,140.7-51.6,201.6-161.1v410.3H.4v-314.6H.4Z"/>
      </g>
    </g>
  </g>
</svg>